<svg xmlns="http://www.w3.org/2000/svg" viewBox="0 0 343.76 73.23"><defs><style>.cls-1{fill-rule:evenodd;}</style></defs><g id="Layer_2" data-name="Layer 2"><g id="Layer_1-2" data-name="Layer 1"><path class="cls-1" d="M0,35.56l.26,5.18a7.88,7.88,0,0,1,.17.94,25.53,25.53,0,0,0,1,5l.68,2.18s0,.2.05.2l.26.6c.08.25.17.53.28.82L3.43,52A23.45,23.45,0,0,0,4.9,54.92l1.62,2.52c.14.2,0,0,.17.2l1.9,2.52c.08.11.14.17.23.28s0,0,.11.15a.11.11,0,0,1,.08.08s0,0,.06,0,0,0,0,.06c.23.22.31.39.51.59l.08.09s.06,0,.06.05l2.67,2.61c.22.2.36.31.62.51l1.08.91a.07.07,0,0,0,.05,0L19,68.69c.74.37,1.48.85,2.24,1.14l.34.17a30.13,30.13,0,0,0,3.63,1.39c.88.22,1.67.53,2.64.73l2.66.6a6.77,6.77,0,0,0,1,.11,37.64,37.64,0,0,0,5.93.4,39.91,39.91,0,0,0,5.13-.54,5.83,5.83,0,0,1,1-.17l1.9-.43c.28-.08.48-.17.88-.28l6.58-2.58a37.8,37.8,0,0,0,5.33-3.29l2.57-2.09s0,0,.06,0l.2-.23.08-.08a1,1,0,0,1,.2-.17A16.62,16.62,0,0,0,63,61.61l.82-.91c.77-.85,1.42-1.79,2.13-2.72l.37-.48s0,0,0-.06l0-.11a.1.1,0,0,0,0-.06l2.36-3.88c.31-.54.48-1.14.79-1.7,0,0,0,0,0-.06l0-.11s0-.06,0-.06L71.38,47a.12.12,0,0,1,0-.06v0l.2-.68c.23-.6.26-1.28.43-1.9a.85.85,0,0,0,.11-.48l.34-1.93c.4-1.84.2-5.5.46-6.55H37.76L37.67,39c1,.23,13.35.09,15.48.09H66.7c2.13,0,1.73-.57,1.47,2.41,0,.48-.2,1-.28,1.53,0,.2-.11.51-.14.74l-.29,1.1c-.08.29,0,.14-.11.4A21.92,21.92,0,0,1,66,49.05s0,.06,0,.06l-2.61,5c-.37.43-.59,1-1,1.39l-.57.8a2.3,2.3,0,0,0-.2.22L59.3,59.2l0,0L57.71,60.7s0,0-.05,0L53.26,64a.08.08,0,0,0,0,0l-.94.54a1.48,1.48,0,0,1-.28.17l-4.42,2-2.84.88a26.89,26.89,0,0,1-4.56.88c-.71,0-1,.2-1.73.2L32,68.49l-2.41-.42a3,3,0,0,0-.76-.2,3.5,3.5,0,0,1-.74-.23l-4-1.36-3.57-1.75a28.41,28.41,0,0,1-5.64-4.11l-.06-.06-3.71-4s0,0-.06-.06L8.76,52.82A29.77,29.77,0,0,1,7.29,50a2.21,2.21,0,0,1-.12-.32L7,49.28c-.2-.46-.34-.85-.54-1.34l-.73-2.12a18.43,18.43,0,0,1-.63-2.67c0-.37-.14-.39-.2-.73a31.13,31.13,0,0,1-.36-9l.51-3.32c.08-.28,0-.51.14-.79s.08-.54.17-.8l.54-1.78a24,24,0,0,1,1-2.81l.45-1a3.88,3.88,0,0,0,.2-.34L10,18.38a1.35,1.35,0,0,1,.2-.31l3.63-4.34a.29.29,0,0,1,.11-.14l1.25-1.16.11-.09.68-.59s0,0,.06,0l2.35-1.79c.37-.28.77-.51,1.16-.76l.57-.37A25.33,25.33,0,0,1,24.6,6.59L26,6.05c.87-.29,2.18-.71,3-.88.57-.11,1-.17,1.59-.31a27.42,27.42,0,0,1,5.21-.57,35.78,35.78,0,0,1,7.4.71l8,2.83s0,0,0,.06l3.71,2.24c.54.37,3.49,2.58,3.63,3.06.39-.11.65-.57,1-.85,0,0,0,0,.06,0l2.07-2.07a2,2,0,0,0-.51-.54l-.85-.76-.06-.06-2-1.56a32.5,32.5,0,0,0-7.79-4.48l-.74-.31-.17,0-2.21-.77a1.59,1.59,0,0,0-.45-.14c-.8-.2-1.7-.51-2.53-.65L42.6.55a9.93,9.93,0,0,0-1-.12A31,31,0,0,0,33.39.18c-1,.14-1.93.14-2.92.34L26,1.6a17.44,17.44,0,0,0-2.07.71l-.45.14a6.18,6.18,0,0,0-.79.31L19.22,4.4s-.06,0-.06,0a1.45,1.45,0,0,0-.22.12l-3,1.89a1.62,1.62,0,0,1-.37.23L13,8.6c-.4.31-.79.71-1.19,1.05L10.06,11.4a27.32,27.32,0,0,0-3.37,4.17l-.43.57c-.19.28-.25.42-.45.68l-.28.48a.62.62,0,0,0-.14.23L3.06,22s0,.06,0,.06l-.71,1.9a.1.1,0,0,1,0,.05l-1.68,6C.43,31.39,0,34.28,0,35.56Z"/><path class="cls-1" d="M18.82,54.29h4.25l.12-.48a.09.09,0,0,1,0-.06.49.49,0,0,1,.08-.25,1.47,1.47,0,0,1,.14-.28L26,46.41a2.09,2.09,0,0,0,.22-.54l.54-1.38s0,0,0-.06c.37-.8.57-1.65.91-2.47.17-.34.28-.76.42-1.13l1.14-3s0,0,0,0l.17-.51a.1.1,0,0,1,0-.06L30,36V35.9L32.54,29c.12-.34.09-.29.2-.57l.43-1.13a3.6,3.6,0,0,1,.22-.54l.09-.17a.09.09,0,0,0,0-.06l.08-.2v-.05a.11.11,0,0,0,0-.09L33.7,26c.34-1.07.83-2.06,1.19-3.11l.49-1.28a.12.12,0,0,1,0-.06l1.14-3a.8.8,0,0,0,.08-.17l.15.31s0,0,0,.06l1.59,3.6s0,.05,0,.05l2.3,5.39s0,0,0,.06l.31.79s0,0,0,.06l.6,1.3a.1.1,0,0,0,0,.06l.05.2s0,0,0,.05a.09.09,0,0,1,0,.06.28.28,0,0,0,.06.14.12.12,0,0,0,0,.06s0,0,0,.06l.2.56H46c0-.37-.17-.42-.26-.73l0-.15a.1.1,0,0,0,0-.05l-.17-.51v-.09l-.12-.23c-.59-1.19-1-2.43-1.56-3.62-.08-.17,0,0-.08-.17l-.57-1.34c-.11-.22-.06-.05-.14-.31l-.45-1.1c-.09-.2-.17-.43-.29-.66l-.22-.53L42,21.5l-.57-1.34s0-.05,0-.08l-2-4.51c0-.05-.06-.14-.09-.2L38.75,14s0,0,0-.05l-.82-2s0,0,0-.06L37.08,10a6.67,6.67,0,0,1-.37-.93c-.45.14-.68,1.47-.91,1.93a3.8,3.8,0,0,0-.31.73c-.17.46-.34,1-.54,1.45l-.57,1.42c-.31.79-.59,1.67-1,2.41l-1.11,2.89c-.05.11-.11.2-.17.34-.17.48-.31.9-.51,1.39l-.56,1.41a4.18,4.18,0,0,1-.26.68l-.34.8v.08l-.71,1.79a.7.7,0,0,0-.08.2l-.85,2.24s0,0,0,.05l-2.18,5.53c-.09.28-.17.37-.29.68l-.9,2.35s0,.12,0,.15,0,0,0,0l-.6,1.48a1.82,1.82,0,0,1-.08.19c-.09.26-.17.46-.28.74-.2.48-.4,1-.57,1.42a2.24,2.24,0,0,1-.11.34L22.48,45a7.51,7.51,0,0,1-.28.76l-.83,2.1c-.08.17-.08.14-.17.34l-.25.71c-.06.17-.09.2-.14.37Z"/><path class="cls-1" d="M47.79,43.58h-1a4.47,4.47,0,0,0,.42,1.5c.15.4.29.85.43,1.22l.42,1.19c.15.4.29.85.43,1.22a.2.2,0,0,1,.06.11L49.69,52a1.25,1.25,0,0,0,.11.31,4.37,4.37,0,0,1,.2.57l.29.59c.48,0,.59.09,1.13.09h2.67c.31,0,.28-.09,0-.65a.1.1,0,0,0,0-.06.13.13,0,0,0,0-.06l-.86-2.27c-.53-1.21-1.19-3.23-1.7-4.5l-.85-2.19c-.28-.53-.14-.19-.76-.25a13.9,13.9,0,0,0-2.13,0Z"/><path d="M95.84,26.77a9.78,9.78,0,0,1,6,1.76,8.46,8.46,0,0,1,3.26,4.82H102.3a6.23,6.23,0,0,0-2.41-3,7.64,7.64,0,0,0-7.76-.14A6.66,6.66,0,0,0,89.55,33a8.72,8.72,0,0,0-1,4.25,9.32,9.32,0,0,0,1,4.31,7.05,7.05,0,0,0,2.66,2.78,7.68,7.68,0,0,0,3.88,1,7.37,7.37,0,0,0,3.46-.79,7,7,0,0,0,2.58-2.38,8.21,8.21,0,0,0,1.19-3.63h-8v-2h10.26V38.9a10.38,10.38,0,0,1-1.5,4.42,9.11,9.11,0,0,1-3.37,3.12,10.76,10.76,0,0,1-10-.17,9.1,9.1,0,0,1-3.51-3.66,11.29,11.29,0,0,1-1.28-5.41,11.2,11.2,0,0,1,1.28-5.41,9,9,0,0,1,3.51-3.69,9.79,9.79,0,0,1,5.19-1.33Zm19.81,4.51a6.52,6.52,0,0,1,3.92,1.16,6,6,0,0,1,2.26,3.09V31.47h2.64V47.4h-2.64v-4a6,6,0,0,1-2.26,3.09,6.52,6.52,0,0,1-3.92,1.16,7.31,7.31,0,0,1-3.77-1,6.68,6.68,0,0,1-2.6-2.83,9.31,9.31,0,0,1-.94-4.31,9.57,9.57,0,0,1,.94-4.37,6.68,6.68,0,0,1,2.6-2.83,7.31,7.31,0,0,1,3.77-1Zm.74,2.35a5,5,0,0,0-3.88,1.56A5.83,5.83,0,0,0,111,39.47a5.81,5.81,0,0,0,1.48,4.25,5,5,0,0,0,3.88,1.56,5.49,5.49,0,0,0,2.81-.71,4.82,4.82,0,0,0,1.92-2.07,6.14,6.14,0,0,0,.71-3,6.37,6.37,0,0,0-.71-3.09,4.91,4.91,0,0,0-1.92-2,5.49,5.49,0,0,0-2.81-.71Zm11.82-6.8a1.65,1.65,0,0,1,.48-1.2,2,2,0,0,1,1.31-.45,1.91,1.91,0,0,1,1.3.45,1.56,1.56,0,0,1,.51,1.2A1.48,1.48,0,0,1,131.3,28a1.78,1.78,0,0,1-1.3.45,1.85,1.85,0,0,1-1.31-.45,1.56,1.56,0,0,1-.48-1.16Zm3.09,4.64V47.4h-2.64V31.47Zm12.61-.25A5.92,5.92,0,0,1,148.42,33a7.17,7.17,0,0,1,1.7,5.16V47.4h-2.63v-9a5.06,5.06,0,0,0-1.22-3.66A4.36,4.36,0,0,0,143,33.46a4.44,4.44,0,0,0-3.46,1.39,5.85,5.85,0,0,0-1.3,4.11V47.4h-2.64V31.47h2.64v3.77a5.3,5.3,0,0,1,2.15-3,6.08,6.08,0,0,1,3.57-1.05Zm24.92,7.34a7.57,7.57,0,0,1-.11,1.45H156a5.64,5.64,0,0,0,1.53,4.08,5.61,5.61,0,0,0,6.8.4,4.12,4.12,0,0,0,1.59-2.61h2.81a6.75,6.75,0,0,1-1.31,3,6.57,6.57,0,0,1-2.58,2,8.67,8.67,0,0,1-3.6.73,8.18,8.18,0,0,1-4-1,6.89,6.89,0,0,1-2.78-2.83,8.74,8.74,0,0,1-1-4.31,9,9,0,0,1,1-4.37,6.89,6.89,0,0,1,2.78-2.83,8.8,8.8,0,0,1,8.11,0,6.92,6.92,0,0,1,2.63,2.63,7.58,7.58,0,0,1,.91,3.66Zm-2.66.17a5.31,5.31,0,0,0-.6-2.95A4.2,4.2,0,0,0,163.76,34a5.8,5.8,0,0,0-2.53-.57,5.31,5.31,0,0,0-3.65,1.33,5.41,5.41,0,0,0-1.59,4Zm8.76-4a5.75,5.75,0,0,1,2.29-2.58,6.76,6.76,0,0,1,3.57-.91v2.86H180a5.65,5.65,0,0,0-3.66,1.16A4.53,4.53,0,0,0,174.93,39V47.4h-2.64V31.47h2.64Zm13.46-3.43a6.44,6.44,0,0,1,4.34,1.41,5.81,5.81,0,0,1,2,3.77h-2.52A3.51,3.51,0,0,0,191,34.14a3.81,3.81,0,0,0-2.7-.91,3.35,3.35,0,0,0-2.21.68,2.25,2.25,0,0,0-.79,1.84,1.81,1.81,0,0,0,.54,1.39,3.54,3.54,0,0,0,1.33.83c.54.17,1.25.36,2.18.59a20.58,20.58,0,0,1,2.87.82,4.48,4.48,0,0,1,1.84,1.36,3.78,3.78,0,0,1,.79,2.5,4,4,0,0,1-1.47,3.14,5.83,5.83,0,0,1-3.91,1.22,7.37,7.37,0,0,1-4.62-1.36,5.32,5.32,0,0,1-2.13-3.8h2.55a3.32,3.32,0,0,0,1.25,2.36,4.65,4.65,0,0,0,2.95.9,3.11,3.11,0,0,0,2.12-.7,2.28,2.28,0,0,0,.8-1.82,2.05,2.05,0,0,0-.57-1.5,3.29,3.29,0,0,0-1.36-.82,20.92,20.92,0,0,0-2.24-.63,21.58,21.58,0,0,1-2.81-.79,4.56,4.56,0,0,1-1.81-1.3,3.71,3.71,0,0,1-.74-2.39,4,4,0,0,1,1.48-3.23,6.09,6.09,0,0,1,4-1.24Zm29.14,11.39h-9l-1.7,4.73H204l7.57-20.06h3l7.54,20.06h-2.83Zm-.74-2.07-3.74-10.32L209.31,40.6Zm15-9.32a7.77,7.77,0,0,1,5,1.61,7,7,0,0,1,2.47,4.37h-2.78a4.22,4.22,0,0,0-1.59-2.7,5.7,5.7,0,0,0-5.75-.34,4.73,4.73,0,0,0-1.84,2,7.15,7.15,0,0,0-.68,3.29,7,7,0,0,0,.68,3.26,4.64,4.64,0,0,0,1.84,2,5.1,5.1,0,0,0,2.55.63,5,5,0,0,0,3.2-1,4.17,4.17,0,0,0,1.59-2.7h2.78A6.85,6.85,0,0,1,236.86,46a7.82,7.82,0,0,1-5,1.61,8.25,8.25,0,0,1-4.06-1A6.69,6.69,0,0,1,225,43.78a8.74,8.74,0,0,1-1-4.31,9,9,0,0,1,1-4.37,6.69,6.69,0,0,1,2.77-2.83,8.25,8.25,0,0,1,4.06-1Zm17.49,0a6.55,6.55,0,0,1,3.91,1.16,6.22,6.22,0,0,1,2.27,3.09V31.47h2.63V47.4h-2.63v-4a6.22,6.22,0,0,1-2.27,3.09,6.55,6.55,0,0,1-3.91,1.16,7.26,7.26,0,0,1-3.77-1,6.64,6.64,0,0,1-2.61-2.83,9.44,9.44,0,0,1-.94-4.31,9.7,9.7,0,0,1,.94-4.37,6.64,6.64,0,0,1,2.61-2.83,7.26,7.26,0,0,1,3.77-1Zm.73,2.35a5,5,0,0,0-3.88,1.56,5.87,5.87,0,0,0-1.47,4.28,5.84,5.84,0,0,0,1.47,4.25A5,5,0,0,0,250,45.28a5.46,5.46,0,0,0,2.81-.71,4.9,4.9,0,0,0,1.93-2.07,6.61,6.61,0,0,0,.71-3,6.86,6.86,0,0,0-.71-3.09,5,5,0,0,0-1.93-2,5.46,5.46,0,0,0-2.81-.71Zm18.8-2.35a6.58,6.58,0,0,1,3.94,1.16A6,6,0,0,1,275,35.53V26h2.63V47.4H275v-4a6,6,0,0,1-2.24,3.09,6.58,6.58,0,0,1-3.94,1.16,7.26,7.26,0,0,1-3.77-1,6.58,6.58,0,0,1-2.58-2.83,9.07,9.07,0,0,1-1-4.31,9.32,9.32,0,0,1,1-4.37,6.58,6.58,0,0,1,2.58-2.83,7.26,7.26,0,0,1,3.77-1Zm.76,2.35a5.08,5.08,0,0,0-3.91,1.56,6,6,0,0,0-1.47,4.28,6,6,0,0,0,1.47,4.25,5.08,5.08,0,0,0,3.91,1.56,5.35,5.35,0,0,0,2.78-.71,4.84,4.84,0,0,0,1.93-2.07,6.25,6.25,0,0,0,.71-3,6.49,6.49,0,0,0-.71-3.09,4.94,4.94,0,0,0-1.93-2,5.35,5.35,0,0,0-2.78-.71Zm26.9,4.93a6.84,6.84,0,0,1-.11,1.45H283.66a5.53,5.53,0,0,0,1.56,4.08,5,5,0,0,0,3.57,1.36,5.14,5.14,0,0,0,3.21-1,4.06,4.06,0,0,0,1.58-2.61h2.81a6.74,6.74,0,0,1-1.3,3,6.64,6.64,0,0,1-2.58,2,8.74,8.74,0,0,1-3.6.73,8.25,8.25,0,0,1-4.06-1,6.87,6.87,0,0,1-2.77-2.83,9,9,0,0,1-1-4.31,9.21,9.21,0,0,1,1-4.37,6.87,6.87,0,0,1,2.77-2.83,8.25,8.25,0,0,1,4.06-1,8.1,8.1,0,0,1,4,1,7,7,0,0,1,2.64,2.63,7.69,7.69,0,0,1,.9,3.66Zm-2.66.17a5.23,5.23,0,0,0-.6-2.95A4.15,4.15,0,0,0,291.43,34a5.78,5.78,0,0,0-2.52-.57,5.32,5.32,0,0,0-3.66,1.33,5.53,5.53,0,0,0-1.59,4Zm25.68-7.51A5.87,5.87,0,0,1,324,33a7.21,7.21,0,0,1,1.7,5.16V47.4h-2.64v-9a5.05,5.05,0,0,0-1.13-3.6,4.1,4.1,0,0,0-3.15-1.25,4.45,4.45,0,0,0-3.37,1.36A6,6,0,0,0,314.16,39V47.4h-2.63v-9a5.1,5.1,0,0,0-1.16-3.6,4.13,4.13,0,0,0-3.15-1.25,4.44,4.44,0,0,0-3.37,1.36A5.91,5.91,0,0,0,302.6,39V47.4H300V31.47h2.64V35.1a5.23,5.23,0,0,1,2.07-2.89,6.09,6.09,0,0,1,3.43-1,6,6,0,0,1,3.51,1,5.64,5.64,0,0,1,2.16,3,5.83,5.83,0,0,1,2.21-3,6.19,6.19,0,0,1,3.54-1.05Zm11.37.25L336.05,44l4.79-12.53h2.92L334.32,55h-3l3.29-7.8-6.69-15.68Z"/></g></g></svg>